#!OML:ASF F:\Work\Patient Classification 1\justin\Session 1\justin.ASF
:FULLY-SPECIFIED
:DEGREES
3791
root -0.133076 16.924 2.29287 11.8753 72.1382 11.2286
lowerback 19.6271 -0.456899 7.32236
upperback 0.483383 1.07916 -0.32423
thorax -10.3834 0.159791 -4.84813
lowerneck 5.32778 -17.7524 -25.8757
upperneck -5.36603 -25.3786 26.6395
head 4.53791 -12.9188 10.3194
rclavicle -2.0276e-014 -7.95139e-015
rhumerus -14.7823 -10.5237 -0.494313
rradius 75.1715
rwrist 17.3968
rhand -13.9527 21.0864
rfingers 7.12502
rthumb 12.1747 -8.53933
lclavicle -2.0276e-014 -7.95139e-015
lhumerus -10.8569 -21.2129 87.1396
lradius 143.314
lwrist 13.0903
lhand -14.3782 4.29815
lfingers 7.12502
lthumb 11.7644 33.9478
rfemur -26.6496 -22.5408 2.41197
rtibia 50.3606
rfoot -11.3548 -14.8028
rtoes -20.4554
lfemur -4.61125 1.40459 -2.43338
ltibia 26.2377
lfoot -17.8574 -12.1669
ltoes -20.4934
3792
root -0.136855 16.9444 2.30641 13.2568 71.8603 12.3977
lowerback 19.5876 0.257016 8.15946
upperback 0.30893 2.16881 -0.686581
thorax -10.3637 0.613354 -6.03189
lowerneck 7.04337 -18.0474 -24.8993
upperneck -6.5084 -25.8753 26.4593
head 3.89282 -13.3034 10.2579
rclavicle -6.65929e-014 -1.43125e-014
rhumerus -14.0123 -8.03699 2.67202
rradius 67.5906
rwrist 19.5264
rhand -15.8186 23.056
rfingers 7.12502
rthumb 10.3751 -6.66804
lclavicle -6.65929e-014 -1.43125e-014
lhumerus -11.799 -21.6292 87.0567
lradius 143.797
lwrist 13.6639
lhand -14.1549 4.61341
lfingers 7.12502
lthumb 11.9798 34.2506
rfemur -27.1211 -21.934 2.00542
rtibia 50.4954
rfoot -13.0275 -14.139
rtoes -2.24284
lfemur -4.49396 1.86386 -2.88774
ltibia 25.5818
lfoot -17.5039 -12.1223
ltoes -19.7932
3793
root -0.145982 16.9439 2.32179 17.1184 70.9658 16.393
lowerback 19.8755 0.351117 7.47851
upperback 0.443084 2.15018 -0.77471
thorax -10.3949 0.639857 -5.74394
lowerneck 6.37082 -17.9758 -25.6308
upperneck -6.3475 -25.7104 26.0844
head 4.03422 -13.1532 10.1839
rclavicle -2.40529e-014 -4.77083e-015
rhumerus -9.77333 -5.97428 4.87011
rradius 59.3428
rwrist 21.2347
rhand -17.0893 24.2028
rfingers 7.12502
rthumb 9.14913 -5.57875
lclavicle -2.40529e-014 -4.77083e-015
lhumerus -12.6886 -19.2458 86.7982
lradius 144.393
lwrist 13.754
lhand -13.4757 4.80757
lfingers 7.12502
lthumb 12.6347 34.4054
rfemur -27.5792 -21.305 0.460284
rtibia 50.7164
rfoot -11.8248 -14.6945
rtoes -18.9435
lfemur -4.0908 2.71769 -4.45337
ltibia 24.9996
lfoot -17.2385 -12.1732
ltoes -19.0304
3794
root -0.154567 16.9476 2.34467 18.3732 70.5139 17.5493
lowerback 19.9457 0.198701 7.82162
upperback 0.557459 2.05008 -0.612523
thorax -10.3162 0.589039 -5.73201
lowerneck 5.98791 -17.718 -26.5951
upperneck -6.30957 -25.3497 25.9504
head 4.11594 -12.9318 10.2955
rclavicle 1.17283e-014 3.02153e-014
rhumerus -5.29821 -3.74169 7.08479
rradius 50.927
rwrist 22.1301
rhand -17.2473 24.8935
rfingers 7.12502
rthumb 8.99674 -4.89462
lclavicle 1.17283e-014 3.02153e-014
lhumerus -13.6681 -16.8508 86.7517
lradius 144.927
lwrist 13.6912
lhand -13.3851 4.73542
lfingers 7.12502
lthumb 12.722 34.3279
rfemur -28.0048 -20.796 0.120374
rtibia 50.899
rfoot -11.8161 -14.9793
rtoes -20.2024
lfemur -3.9178 1.79962 -5.18782
ltibia 24.6339
lfoot -17.688 -10.5015
ltoes -20.1193
3795
root -0.167703 16.9447 2.3671 20.9324 69.759 19.8311
lowerback 19.6562 0.516894 7.38819
upperback 0.594674 2.34813 -0.562407
thorax -10.084 0.765021 -5.49484
lowerneck 6.55428 -17.5044 -27.018
upperneck -6.87568 -25.1354 25.8628
head 3.84449 -12.8579 10.4497
rclavicle 1.98785e-014 -6.36111e-015
rhumerus -1.95052 -0.666499 9.88782
rradius 43.0333
rwrist 21.9397
rhand -17.1895 25.5671
rfingers 7.12502
rthumb 9.05245 -4.21864
lclavicle 1.98785e-014 -6.36111e-015
lhumerus -14.6204 -15.2608 86.7658
lradius 145.535
lwrist 14.3477
lhand -13.2327 4.99996
lfingers 7.12502
lthumb 12.8689 34.5832
rfemur -28.827 -20.1056 -0.648613
rtibia 51.102
rfoot -12.2095 -15.3024
rtoes -18.1022
lfemur -4.17732 1.7334 -6.33388
ltibia 24.507
lfoot -17.9459 -9.72822
ltoes -20.9515
3796
root -0.170678 16.937 2.3959 21.2762 69.6957 19.7628
lowerback 19.108 1.32726 8.30543
upperback 0.523041 3.54382 -0.818034
thorax -9.61117 1.30382 -6.58468
lowerneck 8.31061 -17.8704 -25.0988
upperneck -8.09338 -25.6438 25.1552
head 2.97235 -13.24 10.1507
rclavicle 1.23246e-014 1.43125e-014
rhumerus -1.96177 4.83836 13.1274
rradius 36.5087
rwrist 19.9887
rhand -16.5457 25.2796
rfingers 7.12502
rthumb 9.67367 -4.47823
lclavicle 1.23246e-014 1.43125e-014
lhumerus -15.2882 -16.2076 86.6406
lradius 145.894
lwrist 15.349
lhand -12.8555 5.3838
lfingers 7.12502
lthumb 13.2325 34.9438
rfemur -29.2718 -19.7549 -0.299058
rtibia 51.1796
rfoot -12.6737 -15.8908
rtoes -15.1297
lfemur -4.60952 2.21835 -6.1799
ltibia 24.5006
lfoot -17.8389 -10.2042
ltoes -20.6796
3797
root -0.18724 16.9184 2.41062 21.4793 69.3418 19.9296
lowerback 19.4276 1.27624 8.95072
upperback 0.586555 3.65965 -0.717014
thorax -9.66795 1.33061 -6.88775
lowerneck 7.58829 -17.7677 -24.9758
upperneck -7.62483 -25.3752 24.0872
head 2.96075 -13.0278 9.78132
rclavicle 1.19271e-014 3.81667e-014
rhumerus -0.132932 10.6919 16.191
rradius 31.7405
rwrist 17.1641
rhand -15.1996 24.1926
rfingers 7.12502
rthumb 10.9722 -5.50064
lclavicle 1.19271e-014 3.81667e-014
lhumerus -16.1307 -14.2546 86.507
lradius 146.274
lwrist 15.8774
lhand -12.1449 5.47781
lfingers 7.12502
lthumb 13.9173 34.9921
rfemur -29.4367 -19.3027 -0.219959
rtibia 51.2419
rfoot -12.8843 -16.352
rtoes -9.09613
lfemur -4.58745 2.53513 -6.21621
ltibia 24.5387
lfoot -17.6279 -10.6516
ltoes -19.0885
3798
root -0.202258 16.9135 2.4272 21.852 69.0972 20.3482
lowerback 19.9703 1.32355 9.98338
upperback 0.58191 3.99462 -0.904888
thorax -9.83468 1.42413 -7.81102
lowerneck 7.45661 -17.841 -24.4713
upperneck -7.52432 -25.3928 23.2876
head 2.81742 -13.0126 9.47311
rclavicle 1.51076e-014 -7.95139e-015
rhumerus 0.515787 15.3691 18.7302
rradius 28.3528
rwrist 15.4335
rhand -13.5182 23.7779
rfingers 7.12502
rthumb 12.5936 -5.8225
lclavicle 1.51076e-014 -7.95139e-015
lhumerus -16.7707 -13.5845 85.3484
lradius 146.756
lwrist 17.0646
lhand -12.4674 5.82892
lfingers 7.12502
lthumb 13.6065 35.3643
rfemur -29.4408 -18.7706 -0.402104
rtibia 51.2522
rfoot -13.4538 -16.5745
rtoes -19.4193
lfemur -4.53228 2.60119 -6.3556
ltibia 24.6224
lfoot -17.475 -10.9077
ltoes -17.9824
3799
root -0.215784 16.9102 2.45282 22.7844 68.9877 21.2147
lowerback 20.1963 1.42461 10.6163
upperback 0.660752 4.30047 -0.872036
thorax -9.76805 1.54859 -8.22607
lowerneck 7.37054 -17.9932 -24.3952
upperneck -7.70269 -25.5447 22.6866
head 2.70124 -13.0627 9.26179
rclavicle -4.96962e-014 7.95139e-015
rhumerus 0.92941 15.6516 20.4866
rradius 25.8396
rwrist 16.3368
rhand -11.9527 23.3951
rfingers 7.12502
rthumb 14.1025 -6.10637
lclavicle -4.96962e-014 7.95139e-015
lhumerus -17.3525 -13.2183 85.3271
lradius 146.958
lwrist 17.6936
lhand -13.6695 5.46418
lfingers 7.12502
lthumb 12.4477 35.0735
rfemur -29.565 -18.2703 -0.690501
rtibia 51.3093
rfoot -13.9264 -16.9922
rtoes -19.6493
lfemur -4.68739 1.92925 -6.74172
ltibia 24.6592
lfoot -17.6981 -10.0456
ltoes -19.504
3800
root -0.233061 16.9015 2.48147 24.2601 68.9049 22.5003
lowerback 20.2115 1.51348 10.68
upperback 0.767075 4.45344 -0.646194
thorax -9.63835 1.63912 -8.04169
lowerneck 7.22566 -18.0292 -24.7759
upperneck -8.07904 -25.5547 22.4859
head 2.62763 -13.0408 9.24526
rclavicle 1.59028e-014 4.77083e-015
rhumerus 1.38911 12.1343 21.4729
rradius 24.3356
rwrist 18.2806
rhand -10.7104 21.4803
rfingers 7.12502
rthumb 15.2994 -7.93383
lclavicle 1.59028e-014 4.77083e-015
lhumerus -17.9567 -12.8629 86.054
lradius 147.049
lwrist 17.607
lhand -14.728 5.05976
lfingers 7.12502
lthumb 11.4271 34.7284
rfemur -29.883 -18.0167 -1.01691
rtibia 51.4787
rfoot -14.1055 -17.4129
rtoes -20.3356
lfemur -5.08956 2.12587 -7.12397
ltibia 24.6367
lfoot -17.6917 -9.98978
ltoes -21.4497
3801
root -0.251481 16.8995 2.51783 25.3483 68.8895 23.3005
lowerback 20.2139 1.56938 10.7327
upperback 0.852509 4.55742 -0.441431
thorax -9.53554 1.70325 -7.86305
lowerneck 7.00418 -18.1541 -25.1392
upperneck -8.35383 -25.6799 22.6708
head 2.6835 -13.086 9.29765
rclavicle -4.13472e-014 -2.38542e-014
rhumerus 1.55964 6.54627 21.5106
rradius 23.8344
rwrist 19.668
rhand -10.3982 19.9313
rfingers 7.12502
rthumb 15.6002 -9.45956
lclavicle -4.13472e-014 -2.38542e-014
lhumerus -18.391 -12.2932 86.4269
lradius 147.367
lwrist 17.345
lhand -14.0042 5.42977
lfingers 7.12502
lthumb 12.125 35.0584
rfemur -30.3763 -17.6833 -1.15238
rtibia 51.783
rfoot -14.2669 -17.6997
rtoes -19.742
lfemur -5.56914 2.45742 -7.23593
ltibia 24.6559
lfoot -17.5375 -10.3829
ltoes -22.1008
3802
root -0.272847 16.8987 2.55023 25.8563 68.9754 23.5205
lowerback 20.3317 1.65896 11.0629
upperback 0.917452 4.77092 -0.369001
thorax -9.46403 1.80019 -8.028
lowerneck 6.98267 -18.372 -24.9425
upperneck -8.78069 -25.905 22.977
head 2.63948 -13.21 9.33379
rclavicle -7.35503e-014 1.59028e-015
rhumerus 1.28342 1.48436 21.1394
rradius 24.1484
rwrist 19.0665
rhand -10.9595 19.6598
rfingers 7.12502
rthumb 15.0595 -9.77246
lclavicle -7.35503e-014 1.59028e-015
lhumerus -18.6394 -12.0117 86.5298
lradius 147.708
lwrist 16.7566
lhand -12.0508 5.69835
lfingers 7.12502
lthumb 14.008 35.2064
rfemur -30.9585 -17.2059 -1.10805
rtibia 52.1854
rfoot -14.53 -17.9597
rtoes -18.5253
lfemur -6.0422 2.38882 -7.10949
ltibia 24.7529
lfoot -17.2627 -10.8027
ltoes -21.0355
